<svg xmlns="http://www.w3.org/2000/svg" width="1600" height="730" viewBox="0 0 1600 730">
<rect width="1600" height="730" fill="#f8fafc"/>
<g font-family="DejaVu Sans, sans-serif" fill="#172c43">
<text x="30" y="38" font-size="28" text-anchor="start" fill="#172c43" font-weight="bold">NAV / KEY ACTIONS</text>
<text x="30" y="66" font-size="15" text-anchor="start" fill="#52667b" font-weight="normal">Physical Sofle positions · 60 keys · replacement buttons included</text>
<text x="275" y="97" font-size="14" text-anchor="middle" fill="#52667b" font-weight="normal">LEFT HAND</text>
<text x="1290" y="97" font-size="14" text-anchor="middle" fill="#52667b" font-weight="normal">RIGHT HAND</text>
<rect x="30" y="154.0" width="86" height="75" rx="9" fill="#f0f5fa" stroke="#c1cfdf" stroke-width="1.5"/>
<text x="38" y="170.0" font-size="10" text-anchor="start" fill="#607286" font-weight="normal">L00</text>
<text x="73.0" y="197.5" font-size="20" text-anchor="middle" fill="#172c43" font-weight="bold">`</text>
<text x="73.0" y="219.0" font-size="8" text-anchor="middle" fill="#52667b" font-weight="normal">from BASE / EXTRA</text>
<rect x="123" y="143.5" width="86" height="75" rx="9" fill="#f0f5fa" stroke="#c1cfdf" stroke-width="1.5"/>
<text x="131" y="159.5" font-size="10" text-anchor="start" fill="#607286" font-weight="normal">L01</text>
<text x="166.0" y="187.0" font-size="20" text-anchor="middle" fill="#172c43" font-weight="bold">1</text>
<text x="166.0" y="208.5" font-size="8" text-anchor="middle" fill="#52667b" font-weight="normal">from BASE / EXTRA</text>
<rect x="216" y="122.5" width="86" height="75" rx="9" fill="#f0f5fa" stroke="#c1cfdf" stroke-width="1.5"/>
<text x="224" y="138.5" font-size="10" text-anchor="start" fill="#607286" font-weight="normal">L02</text>
<text x="259.0" y="166.0" font-size="20" text-anchor="middle" fill="#172c43" font-weight="bold">2</text>
<text x="259.0" y="187.5" font-size="8" text-anchor="middle" fill="#52667b" font-weight="normal">from BASE / EXTRA</text>
<rect x="309" y="112" width="86" height="75" rx="9" fill="#f0f5fa" stroke="#c1cfdf" stroke-width="1.5"/>
<text x="317" y="128" font-size="10" text-anchor="start" fill="#607286" font-weight="normal">L03</text>
<text x="352.0" y="155.5" font-size="20" text-anchor="middle" fill="#172c43" font-weight="bold">3</text>
<text x="352.0" y="177" font-size="8" text-anchor="middle" fill="#52667b" font-weight="normal">from BASE / EXTRA</text>
<rect x="402" y="122.5" width="86" height="75" rx="9" fill="#f0f5fa" stroke="#c1cfdf" stroke-width="1.5"/>
<text x="410" y="138.5" font-size="10" text-anchor="start" fill="#607286" font-weight="normal">L04</text>
<text x="445.0" y="166.0" font-size="20" text-anchor="middle" fill="#172c43" font-weight="bold">4</text>
<text x="445.0" y="187.5" font-size="8" text-anchor="middle" fill="#52667b" font-weight="normal">from BASE / EXTRA</text>
<rect x="495" y="133.0" width="86" height="75" rx="9" fill="#f0f5fa" stroke="#c1cfdf" stroke-width="1.5"/>
<text x="503" y="149.0" font-size="10" text-anchor="start" fill="#607286" font-weight="normal">L05</text>
<text x="538.0" y="176.5" font-size="20" text-anchor="middle" fill="#172c43" font-weight="bold">5</text>
<text x="538.0" y="198.0" font-size="8" text-anchor="middle" fill="#52667b" font-weight="normal">from BASE / EXTRA</text>
<rect x="1006.5" y="133.0" width="86" height="75" rx="9" fill="#f0f5fa" stroke="#c1cfdf" stroke-width="1.5"/>
<text x="1014.5" y="149.0" font-size="10" text-anchor="start" fill="#607286" font-weight="normal">R00</text>
<text x="1049.5" y="176.5" font-size="20" text-anchor="middle" fill="#172c43" font-weight="bold">6</text>
<text x="1049.5" y="198.0" font-size="8" text-anchor="middle" fill="#52667b" font-weight="normal">from BASE / EXTRA</text>
<rect x="1099.5" y="122.5" width="86" height="75" rx="9" fill="#f0f5fa" stroke="#c1cfdf" stroke-width="1.5"/>
<text x="1107.5" y="138.5" font-size="10" text-anchor="start" fill="#607286" font-weight="normal">R01</text>
<text x="1142.5" y="166.0" font-size="20" text-anchor="middle" fill="#172c43" font-weight="bold">7</text>
<text x="1142.5" y="187.5" font-size="8" text-anchor="middle" fill="#52667b" font-weight="normal">from BASE / EXTRA</text>
<rect x="1192.5" y="112" width="86" height="75" rx="9" fill="#f0f5fa" stroke="#c1cfdf" stroke-width="1.5"/>
<text x="1200.5" y="128" font-size="10" text-anchor="start" fill="#607286" font-weight="normal">R02</text>
<text x="1235.5" y="155.5" font-size="20" text-anchor="middle" fill="#172c43" font-weight="bold">8</text>
<text x="1235.5" y="177" font-size="8" text-anchor="middle" fill="#52667b" font-weight="normal">from BASE / EXTRA</text>
<rect x="1285.5" y="122.5" width="86" height="75" rx="9" fill="#f0f5fa" stroke="#c1cfdf" stroke-width="1.5"/>
<text x="1293.5" y="138.5" font-size="10" text-anchor="start" fill="#607286" font-weight="normal">R03</text>
<text x="1328.5" y="166.0" font-size="20" text-anchor="middle" fill="#172c43" font-weight="bold">9</text>
<text x="1328.5" y="187.5" font-size="8" text-anchor="middle" fill="#52667b" font-weight="normal">from BASE / EXTRA</text>
<rect x="1378.5" y="143.5" width="86" height="75" rx="9" fill="#f0f5fa" stroke="#c1cfdf" stroke-width="1.5"/>
<text x="1386.5" y="159.5" font-size="10" text-anchor="start" fill="#607286" font-weight="normal">R04</text>
<text x="1421.5" y="187.0" font-size="20" text-anchor="middle" fill="#172c43" font-weight="bold">0</text>
<text x="1421.5" y="208.5" font-size="8" text-anchor="middle" fill="#52667b" font-weight="normal">from BASE / EXTRA</text>
<rect x="1471.5" y="154.0" width="86" height="75" rx="9" fill="#f0f5fa" stroke="#c1cfdf" stroke-width="1.5"/>
<text x="1479.5" y="170.0" font-size="10" text-anchor="start" fill="#607286" font-weight="normal">R05</text>
<text x="1514.5" y="197.5" font-size="20" text-anchor="middle" fill="#172c43" font-weight="bold">=</text>
<text x="1514.5" y="219.0" font-size="8" text-anchor="middle" fill="#52667b" font-weight="normal">from BASE / EXTRA</text>
<rect x="30" y="238.0" width="86" height="75" rx="9" fill="#f0f5fa" stroke="#c1cfdf" stroke-width="1.5"/>
<text x="38" y="254.0" font-size="10" text-anchor="start" fill="#607286" font-weight="normal">L10</text>
<text x="73.0" y="281.5" font-size="20" text-anchor="middle" fill="#172c43" font-weight="bold">Esc</text>
<text x="73.0" y="303.0" font-size="8" text-anchor="middle" fill="#52667b" font-weight="normal">from BASE / EXTRA</text>
<rect x="123" y="227.5" width="86" height="75" rx="9" fill="#fff0d8" stroke="#e2aa4b" stroke-width="1.5"/>
<text x="131" y="243.5" font-size="10" text-anchor="start" fill="#607286" font-weight="normal">L11</text>
<text x="166.0" y="271.0" font-size="20" text-anchor="middle" fill="#172c43" font-weight="bold">BOOT</text>
<text x="166.0" y="292.5" font-size="8" text-anchor="middle" fill="#52667b" font-weight="normal">double tap</text>
<rect x="216" y="206.5" width="86" height="75" rx="9" fill="#fff0d8" stroke="#e2aa4b" stroke-width="1.5"/>
<text x="224" y="222.5" font-size="10" text-anchor="start" fill="#607286" font-weight="normal">L12</text>
<text x="259.0" y="250.0" font-size="20" text-anchor="middle" fill="#172c43" font-weight="bold">TAP</text>
<text x="259.0" y="271.5" font-size="8" text-anchor="middle" fill="#52667b" font-weight="normal">double tap</text>
<rect x="309" y="196" width="86" height="75" rx="9" fill="#fff0d8" stroke="#e2aa4b" stroke-width="1.5"/>
<text x="317" y="212" font-size="10" text-anchor="start" fill="#607286" font-weight="normal">L13</text>
<text x="352.0" y="239.5" font-size="20" text-anchor="middle" fill="#172c43" font-weight="bold">EXTRA</text>
<text x="352.0" y="261" font-size="8" text-anchor="middle" fill="#52667b" font-weight="normal">double tap</text>
<rect x="402" y="206.5" width="86" height="75" rx="9" fill="#fff0d8" stroke="#e2aa4b" stroke-width="1.5"/>
<text x="410" y="222.5" font-size="10" text-anchor="start" fill="#607286" font-weight="normal">L14</text>
<text x="445.0" y="250.0" font-size="20" text-anchor="middle" fill="#172c43" font-weight="bold">BASE</text>
<text x="445.0" y="271.5" font-size="8" text-anchor="middle" fill="#52667b" font-weight="normal">double tap</text>
<rect x="495" y="217.0" width="86" height="75" rx="9" fill="#e7ebf0" stroke="#d3dae3" stroke-width="1.5"/>
<text x="503" y="233.0" font-size="10" text-anchor="start" fill="#607286" font-weight="normal">L15</text>
<text x="538.0" y="260.5" font-size="14" text-anchor="middle" fill="#172c43" font-weight="bold">Blocked</text>
<rect x="1006.5" y="217.0" width="86" height="75" rx="9" fill="#ffffff" stroke="#cad5e2" stroke-width="1.5"/>
<text x="1014.5" y="233.0" font-size="10" text-anchor="start" fill="#607286" font-weight="normal">R10</text>
<text x="1049.5" y="260.5" font-size="20" text-anchor="middle" fill="#172c43" font-weight="bold">Redo</text>
<rect x="1099.5" y="206.5" width="86" height="75" rx="9" fill="#ffffff" stroke="#cad5e2" stroke-width="1.5"/>
<text x="1107.5" y="222.5" font-size="10" text-anchor="start" fill="#607286" font-weight="normal">R11</text>
<text x="1142.5" y="250.0" font-size="20" text-anchor="middle" fill="#172c43" font-weight="bold">Paste</text>
<rect x="1192.5" y="196" width="86" height="75" rx="9" fill="#ffffff" stroke="#cad5e2" stroke-width="1.5"/>
<text x="1200.5" y="212" font-size="10" text-anchor="start" fill="#607286" font-weight="normal">R12</text>
<text x="1235.5" y="239.5" font-size="20" text-anchor="middle" fill="#172c43" font-weight="bold">Copy</text>
<rect x="1285.5" y="206.5" width="86" height="75" rx="9" fill="#ffffff" stroke="#cad5e2" stroke-width="1.5"/>
<text x="1293.5" y="222.5" font-size="10" text-anchor="start" fill="#607286" font-weight="normal">R13</text>
<text x="1328.5" y="250.0" font-size="20" text-anchor="middle" fill="#172c43" font-weight="bold">Cut</text>
<rect x="1378.5" y="227.5" width="86" height="75" rx="9" fill="#ffffff" stroke="#cad5e2" stroke-width="1.5"/>
<text x="1386.5" y="243.5" font-size="10" text-anchor="start" fill="#607286" font-weight="normal">R14</text>
<text x="1421.5" y="271.0" font-size="20" text-anchor="middle" fill="#172c43" font-weight="bold">Undo</text>
<rect x="1471.5" y="238.0" width="86" height="75" rx="9" fill="#f0f5fa" stroke="#c1cfdf" stroke-width="1.5"/>
<text x="1479.5" y="254.0" font-size="10" text-anchor="start" fill="#607286" font-weight="normal">R15</text>
<text x="1514.5" y="281.5" font-size="14" text-anchor="middle" fill="#172c43" font-weight="bold">Backspace</text>
<text x="1514.5" y="303.0" font-size="8" text-anchor="middle" fill="#52667b" font-weight="normal">from BASE / EXTRA</text>
<rect x="30" y="322.0" width="86" height="75" rx="9" fill="#f0f5fa" stroke="#c1cfdf" stroke-width="1.5"/>
<text x="38" y="338.0" font-size="10" text-anchor="start" fill="#607286" font-weight="normal">L20</text>
<text x="73.0" y="365.5" font-size="20" text-anchor="middle" fill="#172c43" font-weight="bold">Tab</text>
<text x="73.0" y="387.0" font-size="8" text-anchor="middle" fill="#52667b" font-weight="normal">from BASE / EXTRA</text>
<rect x="123" y="311.5" width="86" height="75" rx="9" fill="#ffffff" stroke="#cad5e2" stroke-width="1.5"/>
<text x="131" y="327.5" font-size="10" text-anchor="start" fill="#607286" font-weight="normal">L21</text>
<text x="166.0" y="355.0" font-size="20" text-anchor="middle" fill="#172c43" font-weight="bold">GUI</text>
<rect x="216" y="290.5" width="86" height="75" rx="9" fill="#ffffff" stroke="#cad5e2" stroke-width="1.5"/>
<text x="224" y="306.5" font-size="10" text-anchor="start" fill="#607286" font-weight="normal">L22</text>
<text x="259.0" y="334.0" font-size="20" text-anchor="middle" fill="#172c43" font-weight="bold">Alt</text>
<rect x="309" y="280" width="86" height="75" rx="9" fill="#ffffff" stroke="#cad5e2" stroke-width="1.5"/>
<text x="317" y="296" font-size="10" text-anchor="start" fill="#607286" font-weight="normal">L23</text>
<text x="352.0" y="323.5" font-size="20" text-anchor="middle" fill="#172c43" font-weight="bold">Ctrl</text>
<rect x="402" y="290.5" width="86" height="75" rx="9" fill="#ffffff" stroke="#cad5e2" stroke-width="1.5"/>
<text x="410" y="306.5" font-size="10" text-anchor="start" fill="#607286" font-weight="normal">L24</text>
<text x="445.0" y="334.0" font-size="20" text-anchor="middle" fill="#172c43" font-weight="bold">Shift</text>
<rect x="495" y="301.0" width="86" height="75" rx="9" fill="#e7ebf0" stroke="#d3dae3" stroke-width="1.5"/>
<text x="503" y="317.0" font-size="10" text-anchor="start" fill="#607286" font-weight="normal">L25</text>
<text x="538.0" y="344.5" font-size="14" text-anchor="middle" fill="#172c43" font-weight="bold">Blocked</text>
<rect x="1006.5" y="301.0" width="86" height="75" rx="9" fill="#ffffff" stroke="#cad5e2" stroke-width="1.5"/>
<text x="1014.5" y="317.0" font-size="10" text-anchor="start" fill="#607286" font-weight="normal">R20</text>
<text x="1049.5" y="344.5" font-size="20" text-anchor="middle" fill="#172c43" font-weight="bold">Left</text>
<rect x="1099.5" y="290.5" width="86" height="75" rx="9" fill="#ffffff" stroke="#cad5e2" stroke-width="1.5"/>
<text x="1107.5" y="306.5" font-size="10" text-anchor="start" fill="#607286" font-weight="normal">R21</text>
<text x="1142.5" y="334.0" font-size="20" text-anchor="middle" fill="#172c43" font-weight="bold">Down</text>
<rect x="1192.5" y="280" width="86" height="75" rx="9" fill="#ffffff" stroke="#cad5e2" stroke-width="1.5"/>
<text x="1200.5" y="296" font-size="10" text-anchor="start" fill="#607286" font-weight="normal">R22</text>
<text x="1235.5" y="323.5" font-size="20" text-anchor="middle" fill="#172c43" font-weight="bold">Up</text>
<rect x="1285.5" y="290.5" width="86" height="75" rx="9" fill="#ffffff" stroke="#cad5e2" stroke-width="1.5"/>
<text x="1293.5" y="306.5" font-size="10" text-anchor="start" fill="#607286" font-weight="normal">R23</text>
<text x="1328.5" y="334.0" font-size="20" text-anchor="middle" fill="#172c43" font-weight="bold">Right</text>
<rect x="1378.5" y="311.5" width="86" height="75" rx="9" fill="#ffffff" stroke="#cad5e2" stroke-width="1.5"/>
<text x="1386.5" y="327.5" font-size="10" text-anchor="start" fill="#607286" font-weight="normal">R24</text>
<text x="1421.5" y="355.0" font-size="14" text-anchor="middle" fill="#172c43" font-weight="bold">Caps Word</text>
<rect x="1471.5" y="322.0" width="86" height="75" rx="9" fill="#f0f5fa" stroke="#c1cfdf" stroke-width="1.5"/>
<text x="1479.5" y="338.0" font-size="10" text-anchor="start" fill="#607286" font-weight="normal">R25</text>
<text x="1514.5" y="365.5" font-size="20" text-anchor="middle" fill="#172c43" font-weight="bold">\</text>
<text x="1514.5" y="387.0" font-size="8" text-anchor="middle" fill="#52667b" font-weight="normal">from BASE / EXTRA</text>
<rect x="30" y="406.0" width="86" height="75" rx="9" fill="#f0f5fa" stroke="#c1cfdf" stroke-width="1.5"/>
<text x="38" y="422.0" font-size="10" text-anchor="start" fill="#607286" font-weight="normal">L30</text>
<text x="73.0" y="449.5" font-size="20" text-anchor="middle" fill="#172c43" font-weight="bold">Shift</text>
<text x="73.0" y="471.0" font-size="8" text-anchor="middle" fill="#52667b" font-weight="normal">from BASE / EXTRA</text>
<rect x="123" y="395.5" width="86" height="75" rx="9" fill="#e7ebf0" stroke="#d3dae3" stroke-width="1.5"/>
<text x="131" y="411.5" font-size="10" text-anchor="start" fill="#607286" font-weight="normal">L31</text>
<text x="166.0" y="439.0" font-size="14" text-anchor="middle" fill="#172c43" font-weight="bold">Blocked</text>
<rect x="216" y="374.5" width="86" height="75" rx="9" fill="#ffffff" stroke="#cad5e2" stroke-width="1.5"/>
<text x="224" y="390.5" font-size="10" text-anchor="start" fill="#607286" font-weight="normal">L32</text>
<text x="259.0" y="418.0" font-size="20" text-anchor="middle" fill="#172c43" font-weight="bold">AltGr</text>
<rect x="309" y="364" width="86" height="75" rx="9" fill="#fff0d8" stroke="#e2aa4b" stroke-width="1.5"/>
<text x="317" y="380" font-size="10" text-anchor="start" fill="#607286" font-weight="normal">L33</text>
<text x="352.0" y="407.5" font-size="20" text-anchor="middle" fill="#172c43" font-weight="bold">NUM</text>
<text x="352.0" y="429" font-size="8" text-anchor="middle" fill="#52667b" font-weight="normal">double tap</text>
<rect x="402" y="374.5" width="86" height="75" rx="9" fill="#fff0d8" stroke="#e2aa4b" stroke-width="1.5"/>
<text x="410" y="390.5" font-size="10" text-anchor="start" fill="#607286" font-weight="normal">L34</text>
<text x="445.0" y="418.0" font-size="20" text-anchor="middle" fill="#172c43" font-weight="bold">NAV</text>
<text x="445.0" y="439.5" font-size="8" text-anchor="middle" fill="#52667b" font-weight="normal">double tap</text>
<rect x="495" y="385.0" width="86" height="75" rx="9" fill="#e7ebf0" stroke="#d3dae3" stroke-width="1.5"/>
<text x="503" y="401.0" font-size="10" text-anchor="start" fill="#607286" font-weight="normal">L35</text>
<text x="538.0" y="428.5" font-size="14" text-anchor="middle" fill="#172c43" font-weight="bold">Blocked</text>
<rect x="588" y="343.0" width="86" height="75" rx="9" fill="#ffffff" stroke="#cad5e2" stroke-width="1.5"/>
<text x="596" y="359.0" font-size="10" text-anchor="start" fill="#607286" font-weight="normal">LENC</text>
<text x="631.0" y="386.5" font-size="14" text-anchor="middle" fill="#172c43" font-weight="bold">Ctrl+O</text>
<rect x="913.5" y="343.0" width="86" height="75" rx="9" fill="#ffffff" stroke="#cad5e2" stroke-width="1.5"/>
<text x="921.5" y="359.0" font-size="10" text-anchor="start" fill="#607286" font-weight="normal">RENC</text>
<text x="956.5" y="386.5" font-size="14" text-anchor="middle" fill="#172c43" font-weight="bold">Ctrl+I</text>
<rect x="1006.5" y="385.0" width="86" height="75" rx="9" fill="#ffffff" stroke="#cad5e2" stroke-width="1.5"/>
<text x="1014.5" y="401.0" font-size="10" text-anchor="start" fill="#607286" font-weight="normal">R30</text>
<text x="1049.5" y="428.5" font-size="20" text-anchor="middle" fill="#172c43" font-weight="bold">Home</text>
<rect x="1099.5" y="374.5" width="86" height="75" rx="9" fill="#ffffff" stroke="#cad5e2" stroke-width="1.5"/>
<text x="1107.5" y="390.5" font-size="10" text-anchor="start" fill="#607286" font-weight="normal">R31</text>
<text x="1142.5" y="418.0" font-size="14" text-anchor="middle" fill="#172c43" font-weight="bold">Page Down</text>
<rect x="1192.5" y="364" width="86" height="75" rx="9" fill="#ffffff" stroke="#cad5e2" stroke-width="1.5"/>
<text x="1200.5" y="380" font-size="10" text-anchor="start" fill="#607286" font-weight="normal">R32</text>
<text x="1235.5" y="407.5" font-size="14" text-anchor="middle" fill="#172c43" font-weight="bold">Page Up</text>
<rect x="1285.5" y="374.5" width="86" height="75" rx="9" fill="#ffffff" stroke="#cad5e2" stroke-width="1.5"/>
<text x="1293.5" y="390.5" font-size="10" text-anchor="start" fill="#607286" font-weight="normal">R33</text>
<text x="1328.5" y="418.0" font-size="20" text-anchor="middle" fill="#172c43" font-weight="bold">End</text>
<rect x="1378.5" y="395.5" width="86" height="75" rx="9" fill="#ffffff" stroke="#cad5e2" stroke-width="1.5"/>
<text x="1386.5" y="411.5" font-size="10" text-anchor="start" fill="#607286" font-weight="normal">R34</text>
<text x="1421.5" y="439.0" font-size="14" text-anchor="middle" fill="#172c43" font-weight="bold">Insert</text>
<rect x="1471.5" y="406.0" width="86" height="75" rx="9" fill="#f0f5fa" stroke="#c1cfdf" stroke-width="1.5"/>
<text x="1479.5" y="422.0" font-size="10" text-anchor="start" fill="#607286" font-weight="normal">R35</text>
<text x="1514.5" y="449.5" font-size="20" text-anchor="middle" fill="#172c43" font-weight="bold">Enter</text>
<text x="1514.5" y="471.0" font-size="8" text-anchor="middle" fill="#52667b" font-weight="normal">from BASE / EXTRA</text>
<rect x="169.5" y="479.5" width="86" height="75" rx="9" fill="#f0f5fa" stroke="#c1cfdf" stroke-width="1.5"/>
<text x="177.5" y="495.5" font-size="10" text-anchor="start" fill="#607286" font-weight="normal">L40</text>
<text x="212.5" y="523.0" font-size="20" text-anchor="middle" fill="#172c43" font-weight="bold">Alt</text>
<text x="212.5" y="544.5" font-size="8" text-anchor="middle" fill="#52667b" font-weight="normal">from BASE / EXTRA</text>
<rect x="262.5" y="458.5" width="86" height="75" rx="9" fill="#f0f5fa" stroke="#c1cfdf" stroke-width="1.5"/>
<text x="270.5" y="474.5" font-size="10" text-anchor="start" fill="#607286" font-weight="normal">L41</text>
<text x="305.5" y="502.0" font-size="20" text-anchor="middle" fill="#172c43" font-weight="bold">Ctrl</text>
<text x="305.5" y="523.5" font-size="8" text-anchor="middle" fill="#52667b" font-weight="normal">from BASE / EXTRA</text>
<rect x="355.5" y="460.6" width="86" height="75" rx="9" fill="#e7ebf0" stroke="#d3dae3" stroke-width="1.5"/>
<text x="363.5" y="476.6" font-size="10" text-anchor="start" fill="#607286" font-weight="normal">L42</text>
<text x="398.5" y="504.1" font-size="14" text-anchor="middle" fill="#172c43" font-weight="bold">Blocked</text>
<rect x="448.5" y="469.0" width="86" height="75" rx="9" fill="#e7ebf0" stroke="#d3dae3" stroke-width="1.5"/>
<text x="456.5" y="485.0" font-size="10" text-anchor="start" fill="#607286" font-weight="normal">L43</text>
<text x="491.5" y="512.5" font-size="14" text-anchor="middle" fill="#172c43" font-weight="bold">Blocked</text>
<rect x="588" y="469.0" width="86" height="117.0" rx="9" fill="#e7ebf0" stroke="#d3dae3" stroke-width="1.5"/>
<text x="596" y="485.0" font-size="10" text-anchor="start" fill="#607286" font-weight="normal">L44</text>
<text x="631.0" y="533.5" font-size="14" text-anchor="middle" fill="#172c43" font-weight="bold">Blocked</text>
<rect x="913.5" y="469.0" width="86" height="117.0" rx="9" fill="#ffffff" stroke="#cad5e2" stroke-width="1.5"/>
<text x="921.5" y="485.0" font-size="10" text-anchor="start" fill="#607286" font-weight="normal">R41</text>
<text x="956.5" y="533.5" font-size="20" text-anchor="middle" fill="#172c43" font-weight="bold">Enter</text>
<rect x="1053" y="469.0" width="86" height="75" rx="9" fill="#ffffff" stroke="#cad5e2" stroke-width="1.5"/>
<text x="1061" y="485.0" font-size="10" text-anchor="start" fill="#607286" font-weight="normal">R42</text>
<text x="1096.0" y="512.5" font-size="14" text-anchor="middle" fill="#172c43" font-weight="bold">Backspace</text>
<rect x="1146" y="460.6" width="86" height="75" rx="9" fill="#ffffff" stroke="#cad5e2" stroke-width="1.5"/>
<text x="1154" y="476.6" font-size="10" text-anchor="start" fill="#607286" font-weight="normal">R43</text>
<text x="1189.0" y="504.1" font-size="14" text-anchor="middle" fill="#172c43" font-weight="bold">Delete</text>
<rect x="1239" y="458.5" width="86" height="75" rx="9" fill="#f0f5fa" stroke="#c1cfdf" stroke-width="1.5"/>
<text x="1247" y="474.5" font-size="10" text-anchor="start" fill="#607286" font-weight="normal">R44</text>
<text x="1282.0" y="502.0" font-size="20" text-anchor="middle" fill="#172c43" font-weight="bold">Shift</text>
<text x="1282.0" y="523.5" font-size="8" text-anchor="middle" fill="#52667b" font-weight="normal">from BASE / EXTRA</text>
<rect x="1332" y="479.5" width="86" height="75" rx="9" fill="#f0f5fa" stroke="#c1cfdf" stroke-width="1.5"/>
<text x="1340" y="495.5" font-size="10" text-anchor="start" fill="#607286" font-weight="normal">R45</text>
<text x="1375.0" y="523.0" font-size="20" text-anchor="middle" fill="#172c43" font-weight="bold">GUI</text>
<text x="1375.0" y="544.5" font-size="8" text-anchor="middle" fill="#52667b" font-weight="normal">from BASE / EXTRA</text>
<rect x="30" y="620" width="18" height="18" rx="4" fill="#ffffff" stroke="#cad5e2"/>
<text x="57" y="634" font-size="14" text-anchor="start" fill="#172c43" font-weight="normal">Direct key</text>
<rect x="280" y="620" width="18" height="18" rx="4" fill="#f0f5fa" stroke="#c1cfdf"/>
<text x="307" y="634" font-size="14" text-anchor="start" fill="#172c43" font-weight="normal">Inherited extra key</text>
<rect x="530" y="620" width="18" height="18" rx="4" fill="#e8e5ff" stroke="#9584e8"/>
<text x="557" y="634" font-size="14" text-anchor="start" fill="#172c43" font-weight="normal">Tap / modifier</text>
<rect x="780" y="620" width="18" height="18" rx="4" fill="#dff4ed" stroke="#60b59b"/>
<text x="807" y="634" font-size="14" text-anchor="start" fill="#172c43" font-weight="normal">Tap / layer</text>
<rect x="1030" y="620" width="18" height="18" rx="4" fill="#fff0d8" stroke="#e2aa4b"/>
<text x="1057" y="634" font-size="14" text-anchor="start" fill="#172c43" font-weight="normal">Double-tap selector</text>
<rect x="1280" y="620" width="18" height="18" rx="4" fill="#e7ebf0" stroke="#d3dae3"/>
<text x="1307" y="634" font-size="14" text-anchor="start" fill="#172c43" font-weight="normal">Blocked</text>
<text x="30" y="672" font-size="16" text-anchor="start" fill="#172c43" font-weight="normal">Double-tap selectors: exactly two taps. Blocked keys do nothing. GUI = Windows / Super / Command.</text>
<text x="30" y="699" font-size="16" text-anchor="start" fill="#172c43" font-weight="normal">Inherited extras match BASE and EXTRA. This view assumes one functional layer over a typing layer.</text>
</g></svg>
